<svg xmlns="http://www.w3.org/2000/svg" width="67.836" height="55" viewBox="0 0 67.836 55">
  <g id="briefcase" transform="translate(0 -2.953)">
    <g id="c48_bag" transform="translate(0 2.953)">
      <path id="Path_79" data-name="Path 79" d="M63.163,14.279H45.12v-2.26c0-9.624-9.129-9.059-9.129-9.059H31.675c-9.622,0-9.125,9.127-9.125,9.127v2.193H4.438C-.165,14.279,0,18.81,0,18.81v8.844s19.316,7.028,33.776,7.028c15.8,0,34.054-7.1,34.054-7.1V18.81C67.833,14.064,63.163,14.279,63.163,14.279ZM28.641,11.83c0-4.531,5.317-4.6,5.317-4.6,5.394,0,5.228,4.668,5.228,4.668v2.267H28.641ZM39.526,33,28.3,33.011V28.684H39.526Z" transform="translate(0 -2.953)" fill="#3750b5"/>
      <path id="Path_80" data-name="Path 80" d="M67.832,38.476V15.9A89.772,89.772,0,0,1,33.68,22.672C15.781,22.672,0,15.694,0,15.694v22.78a4.274,4.274,0,0,0,4.364,4.533H63.236A4.238,4.238,0,0,0,67.832,38.476ZM39.526,26.54a2.8,2.8,0,0,1-2.8,2.808H31.11A2.8,2.8,0,0,1,28.3,26.54V23.645H39.526Z" transform="translate(0.001 11.993)" fill="#3750b5"/>
    </g>
  </g>
</svg>
