<svg xmlns="http://www.w3.org/2000/svg" width="66.666" height="53" viewBox="0 0 66.666 53">
  <g id="coding" transform="translate(-0.001 -52.478)">
    <g id="Group_48" data-name="Group 48" transform="translate(46.25 60.145)">
      <g id="Group_47" data-name="Group 47">
        <path id="Path_88" data-name="Path 88" d="M374.933,128.479l-15.417-16.333a2.5,2.5,0,1,0-3.636,3.432l13.8,14.617-13.8,14.618a2.5,2.5,0,0,0,3.636,3.433l15.417-16.334A2.5,2.5,0,0,0,374.933,128.479Z" transform="translate(-355.199 -111.361)" fill="#3750b5"/>
      </g>
    </g>
    <g id="Group_50" data-name="Group 50" transform="translate(0.001 60.144)">
      <g id="Group_49" data-name="Group 49" transform="translate(0 0)">
        <path id="Path_89" data-name="Path 89" d="M19.735,144.81l-13.8-14.617,13.8-14.617a2.5,2.5,0,0,0-3.637-3.432L.682,128.477a2.5,2.5,0,0,0,0,3.433L16.1,148.243a2.5,2.5,0,0,0,3.636-3.433Z" transform="translate(-0.001 -111.36)" fill="#3750b5"/>
      </g>
    </g>
    <g id="Group_52" data-name="Group 52" transform="translate(27.166 52.478)">
      <g id="Group_51" data-name="Group 51" transform="translate(0 0)">
        <path id="Path_90" data-name="Path 90" d="M218.848,52.506A2.5,2.5,0,0,0,216,54.6l-7.333,48a2.5,2.5,0,0,0,2.094,2.849,2.575,2.575,0,0,0,.381.028,2.5,2.5,0,0,0,2.468-2.123l7.333-48A2.5,2.5,0,0,0,218.848,52.506Z" transform="translate(-208.636 -52.478)" fill="#3750b5"/>
      </g>
    </g>
  </g>
</svg>
