<svg xmlns="http://www.w3.org/2000/svg" width="80" height="76.664" viewBox="0 0 80 76.664">
  <g id="decrease" transform="translate(0 -1.001)">
    <path id="Path_91" data-name="Path 91" d="M78.333,26.333H1.667a1.667,1.667,0,0,1,0-3.333H78.333a1.667,1.667,0,0,1,0,3.333Z" transform="translate(0 51.332)" fill="#3750b5"/>
    <path id="Path_92" data-name="Path 92" d="M35.333,40.333H18.667A1.667,1.667,0,0,1,17,38.667V20.333A3.339,3.339,0,0,1,20.333,17H33.667A3.339,3.339,0,0,1,37,20.333V38.667A1.667,1.667,0,0,1,35.333,40.333ZM20.333,37H33.667V20.333H20.333Z" transform="translate(39.667 37.332)" fill="#3750b5"/>
    <path id="Path_93" data-name="Path 93" d="M27.333,54.333H10.667A1.667,1.667,0,0,1,9,52.667V14.333A3.339,3.339,0,0,1,12.333,11H25.667A3.339,3.339,0,0,1,29,14.333V52.667A1.667,1.667,0,0,1,27.333,54.333ZM12.333,51H25.667V14.333H12.333Z" transform="translate(21 23.332)" fill="#3750b5"/>
    <path id="Path_94" data-name="Path 94" d="M19.333,68.333H2.667A1.667,1.667,0,0,1,1,66.667V8.333A3.339,3.339,0,0,1,4.333,5H17.667A3.339,3.339,0,0,1,21,8.333V66.667A1.667,1.667,0,0,1,19.333,68.333ZM4.333,65H17.667V8.333H4.333Z" transform="translate(2.333 9.332)" fill="#3750b5"/>
    <path id="Path_95" data-name="Path 95" d="M43.667,34.332a1.674,1.674,0,0,1-1.18-.487l-30-30a1.666,1.666,0,0,1,2.357-2.357l30,30a1.665,1.665,0,0,1-1.177,2.843Z" transform="translate(27.999 0)" fill="#3750b5"/>
    <path id="Path_96" data-name="Path 96" d="M32,22.667H18.667a1.667,1.667,0,0,1,0-3.333H30.333V7.667a1.667,1.667,0,0,1,3.333,0V21A1.667,1.667,0,0,1,32,22.667Z" transform="translate(39.667 11.665)" fill="#3750b5"/>
  </g>
</svg>
