<svg xmlns="http://www.w3.org/2000/svg" width="73.166" height="102" viewBox="0 0 73.166 102">
  <g id="employee_1_" data-name="employee (1)" transform="translate(-83.447)">
    <g id="Group_42" data-name="Group 42" transform="translate(83.447)">
      <path id="Path_78" data-name="Path 78" d="M155.022,82.645a1.544,1.544,0,0,0-1.59,1.494V98.186a.854.854,0,0,1-.878.825h-8.547V69.587a1.593,1.593,0,0,0-3.18,0V99.012H123.615l4.991-5.16a2.572,2.572,0,0,0,.688-2.149c0-.015,0-.03-.007-.045l-4.754-26.39,1.281-1.812a3.72,3.72,0,0,0,2.277.928,2.808,2.808,0,0,0,2.492-1.448h0l5.014-9.443,11.422,4.157c.413.167,6.414,2.706,6.414,9.411V77.166a1.593,1.593,0,0,0,3.18,0V67.059c0-8.834-8.05-12.045-8.392-12.178l-.03-.011-19.01-6.918v-4.19a13.844,13.844,0,0,0,5.639-9.209A7.126,7.126,0,0,0,138.861,33a6.179,6.179,0,0,0,2.345-4.806,6.114,6.114,0,0,0-1.64-4.144V18.518C139.565,8.307,130.724,0,119.858,0s-19.706,8.307-19.706,18.518V24.2a5.8,5.8,0,0,0-1.639,4A6.179,6.179,0,0,0,100.857,33a7.122,7.122,0,0,0,4.041,1.549,13.728,13.728,0,0,0,5.961,9.431v3.968L91.869,54.87l-.03.011c-.343.132-8.392,3.344-8.392,12.178V98.186A3.946,3.946,0,0,0,87.505,102h15.149a1.5,1.5,0,1,0,0-2.988H99.233V69.587a1.593,1.593,0,0,0-3.18,0V99.012H87.505a.854.854,0,0,1-.878-.825V67.059c0-6.727,6.041-9.261,6.412-9.41l11.413-4.158,5.014,9.443a2.808,2.808,0,0,0,2.492,1.448,3.718,3.718,0,0,0,2.277-.928l1.281,1.812-4.753,26.39c0,.015-.005.03-.007.045a2.572,2.572,0,0,0,.688,2.149l4.991,5.16h-6.359a1.5,1.5,0,1,0,0,2.988h42.479a3.946,3.946,0,0,0,4.058-3.813V84.139A1.545,1.545,0,0,0,155.022,82.645Zm-22.4-30.236-4.675,8.8-5.622-3.752,5.774-6.7Zm-9.4,9.316-1.212,1.715h-3.965l-1.212-1.715,3.195-2.132Zm-9.18-13.29v-2.8a17.048,17.048,0,0,0,6.013,1.071A15.751,15.751,0,0,0,126,45.544v2.9l-5.975,6.93ZM138.025,28.2a3.267,3.267,0,0,1-1.238,2.541,3.815,3.815,0,0,1-1.836.794V24.863A3.453,3.453,0,0,1,138.025,28.2Zm-33.258,3.335a3.449,3.449,0,0,1-3.074-3.335,3.631,3.631,0,0,1,3.074-3.259Zm.085-9.639a8.292,8.292,0,0,0-1.52.322v-3.7c0-8.563,7.413-15.53,16.526-15.53s16.526,6.966,16.526,15.53v3.595a7.472,7.472,0,0,0-1.434-.26c0-1.442.013-1.164-5.006-6.234a2.963,2.963,0,0,0-3.612-.414A32.158,32.158,0,0,1,107.8,19.892,2.815,2.815,0,0,0,104.852,21.893Zm3.095,10.815V22.9a35.645,35.645,0,0,0,19.873-5.037c2.3,2.322,3.549,3.541,3.951,4V32.708c0,6.066-5.263,11.012-11.719,11.012C112.8,43.721,107.947,38.436,107.947,32.709Zm4.159,28.5-4.675-8.8,4.514-1.643,5.775,6.7ZM113.93,91.98l4.6-25.552h2.983l4.6,25.552-6.094,6.3Z" transform="translate(-83.447)" fill="#fff"/>
    </g>
  </g>
</svg>
