<svg xmlns="http://www.w3.org/2000/svg" width="336" height="44" viewBox="0 0 336 44"><g transform="translate(-760 -588)"><g transform="translate(760 588)" fill="#fff" stroke="#fff" stroke-width="2"><rect width="336" height="44" rx="6" stroke="none"/><rect x="1" y="1" width="334" height="42" rx="5" fill="none"/></g><text transform="translate(846 616)" fill="#3750b5" font-size="17" font-family="Poppins-Medium, Poppins" font-weight="500"><tspan x="0" y="0">Sign In with facebook</tspan></text><g transform="translate(786 596)"><path d="M13.791,0A13.791,13.791,0,1,1,0,13.791,13.791,13.791,0,0,1,13.791,0Z" transform="translate(0)" fill="#3b5998"/><path d="M114.273,75.172h1.777V72.547h-2.089v.009c-2.532.09-3.05,1.513-3.1,3.007h-.005v1.311h-1.724v2.571h1.724v6.892h2.6V79.446h2.128L116,76.875h-2.538v-.792A.847.847,0,0,1,114.273,75.172Z" transform="translate(-98.803 -65.678)" fill="#fff"/></g></g></svg>