<svg xmlns="http://www.w3.org/2000/svg" width="565" height="565" viewBox="0 0 565 565">
  <g id="Flat" transform="translate(-29.224 -29.224)">
    <rect id="Rectangle_15" data-name="Rectangle 15" width="565" height="19.483" rx="9.741" transform="translate(29.224 574.741)" fill="#a87c50"/>
    <path id="Path_2" data-name="Path 2" d="M457.577,398.264h-38.7V331.207H347.658c-.609.012-1.218.012-1.839,0a43.836,43.836,0,1,1,19.97-82.875c13.723-11.763,42.521-29.979,67.7-4.8,24.962-8.377,34.095,29.224,43.836,58.448,28.932,77.164-28.092,58.826-19.751,96.281Z" fill="#3e3e3e"/>
    <path id="Path_3" data-name="Path 3" d="M423.75,393.393V326.336H347.657c-.368.006-.64.01-.915.01s-.551,0-.83-.008a38.966,38.966,0,0,1-.093-77.932,38.572,38.572,0,0,1,17.75,4.262l2.909,1.489,2.481-2.126c7.093-6.079,21.229-16.278,36.207-16.278,9.061,0,17.432,3.778,24.881,11.227l2.134,2.133,2.86-.96a16.654,16.654,0,0,1,5.258-.936c14.229,0,22.367,25.251,29.548,47.53.958,2.972,1.906,5.915,2.86,8.777l.06.17c16.224,43.27,4.516,53.368-6.806,63.135-7.058,6.088-14.946,12.893-14.019,26.566Z" fill="#505050"/>
    <path id="Path_4" data-name="Path 4" d="M526.034,555.259H302.92c8.938-91.594,79.794-135.929,114.656-144.538a10.385,10.385,0,0,0,2.533-.974,11.275,11.275,0,0,0,6.027-10.387c-43.629-.4-56.049-5.455-78.479-68.153,30.539-.853,52.129-38.966,71.222-38.966,19.483,0,19.483,29.224,38.966,19.483,0,0-11.263-12.932,0-19.483s29.224,19.483,9.741,38.966c9.644,28.944-18.91,29.224-10.009,67.057.085.378.17.755.268,1.133a16.04,16.04,0,0,0,4.688,7.391c20.177,18.265,88.732-3.738,112.208,90.023,9.741,38.965-29.224,58.448-48.707,58.448Z" fill="#f3b88c"/>
    <path id="Path_5" data-name="Path 5" d="M526.034,555.259v19.483H302.92V555.259c6.685-68.47,47.964-110.528,82.948-131a144.56,144.56,0,0,1,16.536-8.353,102.143,102.143,0,0,1,15.172-5.188,10.384,10.384,0,0,0,2.533-.974l18.253,9.133,24.171-12.092c3.227,2.922,7.708,4.81,13.029,6.32,3.994,1.121,8.463,2.022,13.248,2.984,28.761,5.711,69.03,13.212,85.931,80.72,9.741,38.966-29.224,58.448-48.707,58.448Z" fill="#0a4b69"/>
    <path id="Path_6" data-name="Path 6" d="M475.562,413.108l-6.027,13.565-31.172,70.138L407.19,426.673,402.4,415.909a102.149,102.149,0,0,1,15.172-5.188,10.382,10.382,0,0,0,2.533-.974l18.253,9.133,24.171-12.092c3.227,2.922,7.708,4.81,13.029,6.32Z" fill="#b1cdb4"/>
    <path id="Path_7" data-name="Path 7" d="M420.109,409.747l18.253,9.133-19.483,19.483-11.69-11.69L402.4,415.908a102.148,102.148,0,0,1,15.172-5.188,10.384,10.384,0,0,0,2.533-.974Z" fill="#e7f2da"/>
    <path id="Path_8" data-name="Path 8" d="M475.562,413.108l-6.027,13.565-11.69,11.69L438.362,418.88l24.171-12.092c3.227,2.922,7.708,4.81,13.029,6.32Z" fill="#e7f2da"/>
    <path id="Path_9" data-name="Path 9" d="M428.621,428.621l4.871,9.741h9.741l4.871-9.741-9.741-9.741Z" fill="#537ec2"/>
    <path id="Path_10" data-name="Path 10" d="M457.845,496.81l-14.612-58.448h-9.741L418.879,496.81Z" fill="#435e99"/>
    <path id="Path_11" data-name="Path 11" d="M496.81,448.1l-19.483,9.741v19.483l-38.966,38.966L399.4,477.328V457.845L379.914,448.1l5.954-23.842a144.566,144.566,0,0,1,16.536-8.353l35.958,80.9,37.2-83.7c3.994,1.121,8.463,2.022,13.248,2.984Z" fill="#0e638b"/>
    <path id="Path_12" data-name="Path 12" d="M433.491,496.81h9.741v58.448h-9.741Z" fill="#0e638b"/>
    <path id="Path_13" data-name="Path 13" d="M496.81,506.552a4.871,4.871,0,0,1,0-9.741c5.078,0,5.8-1.737,6.035-2.308,1-2.427-.034-7.14-3.182-10.286a4.871,4.871,0,1,1,6.887-6.89c5.717,5.716,7.943,14.506,5.294,20.9-1.573,3.8-5.458,8.323-15.035,8.323Z" fill="#133852"/>
    <path id="Path_14" data-name="Path 14" d="M509.6,555.259c23.948,0,26.18-9.741,26.18-19.483s-9.741-29.224-29.224-29.224H491.94a24.353,24.353,0,0,0,0,48.707Z" fill="#133852"/>
    <path id="Path_15" data-name="Path 15" d="M311.724,526.034H272.759c-9.741,0-21.146,6.407-24.35,15.07-7.553,13.661,7.1,19.634,14.405,15.778h49.062V526.034" fill="#f5a971"/>
    <path id="Path_16" data-name="Path 16" d="M287.8,540.9a4.877,4.877,0,0,1-4.733-6.035,21.864,21.864,0,0,1,8.4-12.753,4.871,4.871,0,0,1,5.773,7.846,12.207,12.207,0,0,0-4.715,7.234A4.873,4.873,0,0,1,287.8,540.9Z" fill="#e37066"/>
    <path id="Path_17" data-name="Path 17" d="M292.241,535.776a38.966,38.966,0,0,1,38.966,38.966H253.276A38.966,38.966,0,0,1,292.241,535.776Z" fill="#537ec2"/>
    <path id="Path_18" data-name="Path 18" d="M282.649,574.75c-.1,0-.194,0-.291-.008a4.871,4.871,0,0,1-4.576-5.149,87.085,87.085,0,0,1,7.613-30.865,4.871,4.871,0,1,1,8.876,4.015,77.37,77.37,0,0,0-6.764,27.424,4.871,4.871,0,0,1-4.858,4.584Z" fill="#435e99"/>
    <path id="Path_19" data-name="Path 19" d="M340.948,555.259c0,9.741-9.23,12.846-19.081,12.992s-7.915-10.35-4.457-12.992a15.774,15.774,0,0,1,6.575-3.1H324a38.853,38.853,0,0,0-8.645-8.767l-.889,1.522c-8.828,14-24.451,7.708-22.223-6.3s19.483-12.579,24.353-12.579c14.612,0,24.353,14.612,24.353,29.224Z" fill="#f5a971"/>
    <rect id="Rectangle_16" data-name="Rectangle 16" width="224.052" height="19.483" rx="9.741" transform="translate(331.207 555.259)" fill="#537ec2"/>
    <rect id="Rectangle_17" data-name="Rectangle 17" width="77.931" height="19.483" rx="9.741" transform="translate(477.328 555.259)" fill="#435e99"/>
    <path id="Path_20" data-name="Path 20" d="M535.776,535.776c-19.483,0-19.945,3.653-26.484,16.292-3.7,7.136-12.932,6.21-15.257-.633-7.708,6.052-16.012,4.408-17.157-2.325-.4.438-.816.865-1.23,1.278-5.7,5.7-13.577,3.824-14.332-3.081-4.627,11.093-31.72,4.1-2.228-27.178,13.273-13.577,27.982-13.577,47.465-13.577s29.224,19.483,29.224,29.224Z" fill="#f5a971"/>
    <path id="Path_21" data-name="Path 21" d="M477.168,549.141a4.874,4.874,0,0,1-4.73-6.048c1.209-4.858,4.3-10.059,9.188-15.458a4.871,4.871,0,0,1,7.222,6.538c-4.732,5.226-6.4,9.015-6.956,11.272a4.873,4.873,0,0,1-4.723,3.7Z" fill="#e37066"/>
    <path id="Path_22" data-name="Path 22" d="M461.828,547.3a4.875,4.875,0,0,1-4.68-6.227,35.932,35.932,0,0,1,8.044-13.4,4.871,4.871,0,0,1,7.284,6.469c-3.9,4.387-5.4,7.666-5.972,9.645a4.872,4.872,0,0,1-4.676,3.516Z" fill="#e37066"/>
    <path id="Path_23" data-name="Path 23" d="M493.584,551.144a4.954,4.954,0,0,1-.605-.037,4.871,4.871,0,0,1-4.234-5.433c.7-5.628,3.865-11.678,9.412-17.986a4.87,4.87,0,0,1,7.314,6.433c-5.27,5.992-6.748,10.242-7.059,12.751a4.872,4.872,0,0,1-4.828,4.271Z" fill="#e37066"/>
    <path id="Path_24" data-name="Path 24" d="M360.49,555.313a4.87,4.87,0,0,1-3.608-8.141c12.221-13.491,18.161-33.151,18.161-60.1a4.871,4.871,0,0,1,9.741,0c0,29.481-6.766,51.28-20.683,66.644a4.86,4.86,0,0,1-3.611,1.6Z" fill="#133852"/>
    <circle id="Ellipse_3" data-name="Ellipse 3" cx="4.871" cy="4.871" r="4.871" transform="translate(414.009 326.339)" fill="#0a4b69"/>
    <circle id="Ellipse_4" data-name="Ellipse 4" cx="4.871" cy="4.871" r="4.871" transform="translate(372.608 343.384)" fill="#0a4b69"/>
    <path id="Path_25" data-name="Path 25" d="M402.362,366.7a15.148,15.148,0,0,1-14.47-9.269c-2.84-6.987-.439-16.712,9.6-20.969a4.87,4.87,0,1,1,3.8,8.968c-4.35,1.844-5.5,5.589-4.381,8.333,1.34,3.3,5.346,4.113,10.456,2.126a4.87,4.87,0,1,1,3.532,9.078,23.576,23.576,0,0,1-8.543,1.733Z" fill="#e9ae82"/>
    <path id="Path_26" data-name="Path 26" d="M426.148,356.8c13.635-12.606,25.609,1.321,14.244,11.748C420.909,388.032,406.665,376.284,426.148,356.8Z" fill="#e34e03"/>
    <path id="Path_27" data-name="Path 27" d="M365.053,339.276l16.724-6.587a2.935,2.935,0,0,0-.988-5.665l-10.012-.3a9.741,9.741,0,0,0-9.223,5.852l-.921,2.119a3.444,3.444,0,0,0,4.42,4.578Z" fill="#777"/>
    <path id="Path_28" data-name="Path 28" d="M422.092,316.813,405.368,323.4a2.935,2.935,0,0,1-3.14-4.818l7.12-7.045a9.741,9.741,0,0,1,10.736-2.008l2.119.921a3.444,3.444,0,0,1-.111,6.363Z" fill="#777"/>
    <rect id="Rectangle_18" data-name="Rectangle 18" width="292.241" height="214.31" rx="19.483" transform="translate(38.966 311.724)" fill="#537ec2"/>
    <circle id="Ellipse_5" data-name="Ellipse 5" cx="19.483" cy="19.483" r="19.483" transform="translate(165.603 399.397)" fill="#e7f2da"/>
    <path id="Path_32" data-name="Path 32" d="M172.625,457.845h26.416A13.346,13.346,0,0,1,211.7,475.411L189.36,542.437a9.741,9.741,0,0,0,9.242,12.822H214.31a9.741,9.741,0,1,1,0,19.483H161.523a25.144,25.144,0,0,1-23.854-33.1l25.714-77.141a9.741,9.741,0,0,1,9.241-6.661Z" fill="#435e99"/>
    <path id="Path_33" data-name="Path 33" d="M175.345,569.871a4.855,4.855,0,0,1-3.444-1.427,27.016,27.016,0,0,1-6.562-27.795l24.868-74.6a4.871,4.871,0,1,1,9.242,3.08l-24.868,74.6a17.327,17.327,0,0,0,4.208,17.827,4.871,4.871,0,0,1-3.444,8.314Z" fill="#2a447d"/>
    <path id="Path_34" data-name="Path 34" d="M29.224,184.353v7.925a146.121,146.121,0,0,0,32.02,91.281,13,13,0,0,0,16.6,3.166l45.751-26.143a13,13,0,0,0,3.95-19.086,101.946,101.946,0,0,1-20.389-61.167v-15.45a13,13,0,0,0-17.563-12.171L37.659,172.182a13,13,0,0,0-8.435,12.171Z" fill="#b1cdb4"/>
    <g id="Group_2" data-name="Group 2">
      <path id="Path_35" data-name="Path 35" d="M77.933,182.634a4.872,4.872,0,0,1-1.827-9.388l9.741-3.937a4.871,4.871,0,1,1,3.651,9.033l-9.741,3.937a4.863,4.863,0,0,1-1.823.356Z" fill="#03999c"/>
      <path id="Path_36" data-name="Path 36" d="M48.709,216.36a4.871,4.871,0,0,1-1.945-9.338l16.258-7.069a4.871,4.871,0,0,1,3.885,8.933l-16.258,7.069a4.843,4.843,0,0,1-1.94.405Z" fill="#03999c"/>
      <path id="Path_37" data-name="Path 37" d="M80.707,202.447a4.871,4.871,0,0,1-1.944-9.338l13.513-5.876a4.87,4.87,0,0,1,3.884,8.933l-13.513,5.876a4.838,4.838,0,0,1-1.939.406Z" fill="#03999c"/>
      <path id="Path_38" data-name="Path 38" d="M50.341,237.9a4.872,4.872,0,0,1-2.063-9.286l8.11-3.784a4.871,4.871,0,1,1,4.119,8.828L52.4,237.44a4.861,4.861,0,0,1-2.057.458Z" fill="#03999c"/>
      <path id="Path_39" data-name="Path 39" d="M73.884,226.914a4.872,4.872,0,0,1-2.063-9.286l22.912-10.69a4.871,4.871,0,0,1,4.119,8.828L75.94,226.457a4.861,4.861,0,0,1-2.057.458Z" fill="#03999c"/>
      <path id="Path_40" data-name="Path 40" d="M58.123,256.687a4.872,4.872,0,0,1-2.181-9.229l16.565-8.28a4.871,4.871,0,0,1,4.356,8.714L60.3,256.172a4.849,4.849,0,0,1-2.174.515Z" fill="#03999c"/>
      <path id="Path_41" data-name="Path 41" d="M87.676,241.914a4.872,4.872,0,0,1-2.181-9.229l15.659-7.827a4.871,4.871,0,1,1,4.356,8.714L89.85,241.4a4.85,4.85,0,0,1-2.174.515Z" fill="#03999c"/>
      <path id="Path_42" data-name="Path 42" d="M97.418,258.522a4.871,4.871,0,0,1-2.3-9.166l15.1-8.081a4.87,4.87,0,0,1,4.6,8.588l-15.1,8.081a4.841,4.841,0,0,1-2.294.578Z" fill="#03999c"/>
    </g>
    <path id="Path_43" data-name="Path 43" d="M584.483,164.807V172.8a146.121,146.121,0,0,1-32.019,91.281l-.049.061a12.907,12.907,0,0,1-16.483,3.144l-45.909-26.234A12.907,12.907,0,0,1,486.1,222.1a102.257,102.257,0,0,0,20.452-61.354V145.263a12.907,12.907,0,0,1,17.439-12.085l52.116,19.544a12.907,12.907,0,0,1,8.375,12.086Z" fill="#b1cdb4"/>
    <path id="Path_44" data-name="Path 44" d="M569.87,176.929a4.857,4.857,0,0,1-1.822-.356l-14.612-5.9a4.871,4.871,0,0,1,3.648-9.033l14.612,5.9a4.871,4.871,0,0,1-1.826,9.388Z" fill="#03999c"/>
    <path id="Path_45" data-name="Path 45" d="M530.9,182.046a4.864,4.864,0,0,1-1.941-.405L518.6,177.132a4.871,4.871,0,1,1,3.886-8.933l10.362,4.508a4.872,4.872,0,0,1-1.945,9.338Z" fill="#03999c"/>
    <path id="Path_46" data-name="Path 46" d="M568.212,198.275a4.845,4.845,0,0,1-1.941-.406L543.574,188a4.871,4.871,0,0,1,3.886-8.933l22.7,9.873a4.871,4.871,0,0,1-1.945,9.338Z" fill="#03999c"/>
    <path id="Path_47" data-name="Path 47" d="M535.753,205.536a4.856,4.856,0,0,1-2.056-.458l-18.854-8.795a4.871,4.871,0,1,1,4.118-8.828l18.854,8.795a4.871,4.871,0,0,1-2.062,9.286Z" fill="#03999c"/>
    <path id="Path_48" data-name="Path 48" d="M563.366,218.415a4.856,4.856,0,0,1-2.056-.458l-13.807-6.44a4.871,4.871,0,1,1,4.118-8.828l13.806,6.44a4.871,4.871,0,0,1-2.062,9.286Z" fill="#03999c"/>
    <path id="Path_49" data-name="Path 49" d="M518,218.415a4.85,4.85,0,0,1-2.174-.515l-7.625-3.811a4.871,4.871,0,0,1,4.356-8.714l7.625,3.811A4.872,4.872,0,0,1,518,218.415Z" fill="#03999c"/>
    <path id="Path_50" data-name="Path 50" d="M555.584,237.2a4.849,4.849,0,0,1-2.174-.515l-22.613-11.3a4.871,4.871,0,0,1,4.356-8.714l22.613,11.3a4.872,4.872,0,0,1-2.181,9.229Z" fill="#03999c"/>
    <path id="Path_51" data-name="Path 51" d="M545.124,254.47a4.84,4.84,0,0,1-2.294-.578l-19.218-10.283a4.87,4.87,0,1,1,4.6-8.588L547.426,245.3a4.871,4.871,0,0,1-2.3,9.166Z" fill="#03999c"/>
    <circle id="Ellipse_6" data-name="Ellipse 6" cx="107.155" cy="107.155" r="107.155" transform="translate(136.379 29.224)" fill="#5f97ec"/>
    <circle id="Ellipse_7" data-name="Ellipse 7" cx="87.672" cy="87.672" r="87.672" transform="translate(155.862 48.707)" fill="#537ec2"/>
    <path id="Path_52" data-name="Path 52" d="M249.711,166.559,235.1,141.251l16.873-9.741,14.612,25.309a5.213,5.213,0,0,1,7.809,4.85l-1.13,17.525a5.213,5.213,0,0,1-7.513,4.338l-15.742-7.784a5.213,5.213,0,0,1-.3-9.188Z" fill="#72baaa"/>
    <path id="Path_53" data-name="Path 53" d="M263.017,136.379A19.483,19.483,0,1,1,233.793,119.5V87.672a5.2,5.2,0,0,1-4.335-8.11L239.2,64.95a5.211,5.211,0,0,1,8.67,0l9.741,14.612a5.213,5.213,0,0,1-4.335,8.11V119.5A19.475,19.475,0,0,1,263.017,136.379Z" fill="#b1cdb4"/>
    <circle id="Ellipse_8" data-name="Ellipse 8" cx="9.741" cy="9.741" r="9.741" transform="translate(233.793 126.638)" fill="#72baaa"/>
  </g>
</svg>
