<svg xmlns="http://www.w3.org/2000/svg" width="336" height="44" viewBox="0 0 336 44"><g transform="translate(-794 -592)"><g transform="translate(794 592)" fill="#fff"><path d="M 330 43 L 6 43 C 3.243000030517578 43 1 40.75699996948242 1 38 L 1 6 C 1 3.243000030517578 3.243000030517578 1 6 1 L 330 1 C 332.7569885253906 1 335 3.243000030517578 335 6 L 335 38 C 335 40.75699996948242 332.7569885253906 43 330 43 Z" stroke="none"/><path d="M 6 2 C 3.794403076171875 2 2 3.794410705566406 2 6 L 2 38 C 2 40.20558929443359 3.794403076171875 42 6 42 L 330 42 C 332.2055969238281 42 334 40.20558929443359 334 38 L 334 6 C 334 3.794410705566406 332.2055969238281 2 330 2 L 6 2 M 6 0 L 330 0 C 333.313720703125 0 336 2.686271667480469 336 6 L 336 38 C 336 41.31372833251953 333.313720703125 44 330 44 L 6 44 C 2.686279296875 44 0 41.31372833251953 0 38 L 0 6 C 0 2.686271667480469 2.686279296875 0 6 0 Z" stroke="none" fill="#fff"/></g><text transform="translate(880 620)" fill="#3750b5" font-size="17" font-family="Poppins-Medium, Poppins" font-weight="500"><tspan x="0" y="0">Sign in with google </tspan></text><g transform="translate(820.284 600.791)"><g transform="translate(0)"><path d="M6.064,108.087a6.83,6.83,0,0,1,.967-3.511v-4.361H2.669a12.942,12.942,0,0,0,0,15.744H7.03V111.6A6.83,6.83,0,0,1,6.064,108.087Z" transform="translate(0 -95.151)" fill="#fbbd00"/><path d="M199.032,373.923,196,376.955l3.032,3.032a12.838,12.838,0,0,0,7.872-2.669v-4.357h-4.357A6.87,6.87,0,0,1,199.032,373.923Z" transform="translate(-186.096 -354.115)" fill="#0f9d58"/><path d="M57.184,325.477l-4.361,4.361a13.137,13.137,0,0,0,1.12,1.275A12.851,12.851,0,0,0,63.09,334.9v-6.064A6.875,6.875,0,0,1,57.184,325.477Z" transform="translate(-50.154 -309.031)" fill="#31aa52"/><path d="M268.936,200.289a13.05,13.05,0,0,0-.212-2.343l-.114-.621H256v6.064h6.137a6.84,6.84,0,0,1-2.622,2.811l4.357,4.357a13.138,13.138,0,0,0,1.275-1.12A12.851,12.851,0,0,0,268.936,200.289Z" transform="translate(-243.064 -187.353)" fill="#3c79e6"/><path d="M203.891,8.076l.536.536,4.288-4.288-.536-.536A12.851,12.851,0,0,0,199.032,0L196,3.032l3.032,3.032A6.827,6.827,0,0,1,203.891,8.076Z" transform="translate(-186.096 0)" fill="#cf2d48"/><path d="M63.089,6.064V0a12.851,12.851,0,0,0-9.147,3.789,13.129,13.129,0,0,0-1.12,1.275l4.361,4.361A6.875,6.875,0,0,1,63.089,6.064Z" transform="translate(-50.153 0)" fill="#eb4132"/></g></g></g></svg>