<svg xmlns="http://www.w3.org/2000/svg" width="55" height="55" viewBox="0 0 55 55">
  <g id="Google" transform="translate(-303 -3882)">
    <g id="Ellipse_9" data-name="Ellipse 9" transform="translate(303 3882)" fill="none" stroke="#fff" stroke-width="3">
      <circle cx="27.5" cy="27.5" r="27.5" stroke="none"/>
      <circle cx="27.5" cy="27.5" r="26" fill="none"/>
    </g>
    <path id="Icon_awesome-google-plus-g" data-name="Icon awesome-google-plus-g" d="M18.688,12.339a7.761,7.761,0,0,1,.15,1.523c0,5.23-3.508,8.938-8.788,8.938a9.15,9.15,0,1,1,0-18.3,8.74,8.74,0,0,1,6.129,2.4L13.695,9.281A5.137,5.137,0,0,0,10.05,7.87a5.781,5.781,0,0,0,0,11.559,4.956,4.956,0,0,0,5.193-3.945H10.05V12.339h8.638Zm8.836.307V9.99H24.854v2.656H22.2v2.669h2.656V17.97h2.669V15.315h2.656V12.646H27.523Z" transform="translate(314.92 3896.5)" fill="#fff"/>
  </g>
</svg>
