<svg xmlns="http://www.w3.org/2000/svg" width="28.94" height="20.258" viewBox="0 0 28.94 20.258"><path d="M24.31,11.05a4.346,4.346,0,0,0-4.052-5.906,4.319,4.319,0,0,0-2.41.733A7.236,7.236,0,0,0,4.341,9.485c0,.122,0,.244.009.366A6.513,6.513,0,0,0,6.512,22.508H23.152A5.788,5.788,0,0,0,24.31,11.05Zm-6.521,2.776H14.832v5.065a.726.726,0,0,1-.724.724H11.938a.726.726,0,0,1-.724-.724V13.826H8.257a.722.722,0,0,1-.511-1.234l4.766-4.766a.726.726,0,0,1,1.022,0L18.3,12.592A.723.723,0,0,1,17.789,13.826Z" transform="translate(0 -2.25)" fill="#7a838b"/></svg>