<svg xmlns="http://www.w3.org/2000/svg" width="13.078" height="20.924" viewBox="0 0 13.078 20.924">
  <path id="Icon_metro-location" data-name="Icon metro-location" d="M14.894,1.928A6.539,6.539,0,0,0,8.355,8.467c0,6.539,6.539,14.385,6.539,14.385s6.539-7.847,6.539-14.385a6.539,6.539,0,0,0-6.539-6.539Zm0,10.544A4.005,4.005,0,1,1,18.9,8.467,4.005,4.005,0,0,1,14.894,12.472ZM12.36,8.467A2.534,2.534,0,1,1,14.894,11,2.534,2.534,0,0,1,12.36,8.467Z" transform="translate(-8.355 -1.928)" fill="#a7a7a7"/>
</svg>
