<svg xmlns="http://www.w3.org/2000/svg" width="31" height="30" viewBox="0 0 31 30"><g transform="translate(0.274)"><g transform="translate(-0.274)" fill="none" stroke="#d1d1d1" stroke-width="3"><ellipse cx="15.5" cy="15" rx="15.5" ry="15" stroke="none"/><ellipse cx="15.5" cy="15" rx="14" ry="13.5" fill="none"/></g><g transform="translate(9.814 9.096)"><path d="M6.094,3h6.189a3.094,3.094,0,0,1,3.094,3.094v6.189a3.094,3.094,0,0,1-3.094,3.094H6.094A3.094,3.094,0,0,1,3,12.283V6.094A3.094,3.094,0,0,1,6.094,3Z" transform="translate(-3 -3)" fill="none" stroke="#d1d1d1" stroke-linecap="round" stroke-linejoin="round" stroke-width="3"/><path d="M16.989,14.047A2.475,2.475,0,1,1,14.9,11.962a2.475,2.475,0,0,1,2.086,2.086Z" transform="translate(-8.325 -8.249)" fill="none" stroke="#d1d1d1" stroke-linecap="round" stroke-linejoin="round" stroke-width="3"/><path d="M26.25,9.75h0" transform="translate(-16.658 -6.965)" fill="none" stroke="#d1d1d1" stroke-linecap="round" stroke-linejoin="round" stroke-width="3"/></g></g></svg>