<svg xmlns="http://www.w3.org/2000/svg" width="70.36" height="59.558" viewBox="0 0 70.36 59.558">
  <g id="megaphone" transform="translate(-30.849)">
    <g id="Group_57" data-name="Group 57" transform="translate(30.849 2.984)">
      <g id="Group_56" data-name="Group 56">
        <path id="Path_100" data-name="Path 100" d="M78.612,40.081,59.138,20.608a5.164,5.164,0,0,0-7.932,6.541l-.027.136a36.029,36.029,0,0,1-9.885,18.47l-8.932,8.932a5.161,5.161,0,0,0,0,7.3l4.868,4.868a5.161,5.161,0,0,0,7.3,0l1.217-1.217,8.519,8.519a5.163,5.163,0,1,0,7.3-7.3L57.921,63.2l1.217-1.217a5.16,5.16,0,0,0,0-7.3l-.827-.827a36.034,36.034,0,0,1,13.624-5.819l.137-.027a5.17,5.17,0,0,0,6.539-.629h0A5.17,5.17,0,0,0,78.612,40.081ZM42.1,64.422a1.72,1.72,0,0,1-2.434,0L34.8,59.553a1.72,1.72,0,0,1,0-2.434L43.316,48.6l7.3,7.3ZM59.138,69.29A1.721,1.721,0,0,1,56.7,71.724L48.185,63.2l2.434-2.434ZM53.053,58.336c.517-.517,1.292-1.31,2.514-2.354L56.7,57.119a1.72,1.72,0,0,1,0,2.434l-1.217,1.217Zm.073-4.795-7.449-7.449a39.416,39.416,0,0,0,8.38-15.961l15.03,15.03A39.414,39.414,0,0,0,53.126,53.541Zm23.051-8.593a1.72,1.72,0,0,1-2.434,0L54.27,25.476A1.721,1.721,0,1,1,56.7,23.042L76.177,42.515A1.723,1.723,0,0,1,76.177,44.949Z" transform="translate(-30.849 -19.098)" fill="#3750b5"/>
      </g>
    </g>
    <g id="Group_59" data-name="Group 59" transform="translate(42.164 50.744)">
      <g id="Group_58" data-name="Group 58" transform="translate(0)">
        <path id="Path_101" data-name="Path 101" d="M110.579,325.448a2.343,2.343,0,0,0-3.314,0l-3.314,3.314a2.343,2.343,0,0,0,3.314,3.314l3.314-3.314A2.343,2.343,0,0,0,110.579,325.448Z" transform="translate(-103.266 -324.762)" fill="#3750b5"/>
      </g>
    </g>
    <g id="Group_61" data-name="Group 61" transform="translate(77.778)">
      <g id="Group_60" data-name="Group 60">
        <path id="Path_102" data-name="Path 102" d="M333.537,0a2.343,2.343,0,0,0-2.343,2.343V7.029a2.343,2.343,0,0,0,4.686,0V2.343A2.343,2.343,0,0,0,333.537,0Z" transform="translate(-331.194)" fill="#3750b5"/>
      </g>
    </g>
    <g id="Group_63" data-name="Group 63" transform="translate(91.837 18.745)">
      <g id="Group_62" data-name="Group 62">
        <path id="Path_103" data-name="Path 103" d="M428.2,119.966h-4.686a2.343,2.343,0,0,0,0,4.686H428.2a2.343,2.343,0,1,0,0-4.686Z" transform="translate(-421.169 -119.966)" fill="#3750b5"/>
      </g>
    </g>
    <g id="Group_65" data-name="Group 65" transform="translate(87.151 4.686)">
      <g id="Group_64" data-name="Group 64">
        <path id="Path_104" data-name="Path 104" d="M399.864,30.677a2.343,2.343,0,0,0-3.314,0l-4.686,4.686a2.343,2.343,0,0,0,3.314,3.314l4.686-4.686A2.343,2.343,0,0,0,399.864,30.677Z" transform="translate(-391.178 -29.991)" fill="#3750b5"/>
      </g>
    </g>
  </g>
</svg>
