<svg xmlns="http://www.w3.org/2000/svg" width="69" height="69" viewBox="0 0 69 69">
  <g id="paint-palette" transform="translate(0 0)">
    <path id="Path_81" data-name="Path 81" d="M20.35,56.736a8.063,8.063,0,0,0-2.573-5.907v-.011c.143-1.979.259-4.066.347-6.218,4.139.78,7.072,2.349,8.732,4.68A9.767,9.767,0,0,1,28.2,56.825a6.087,6.087,0,0,0,4.62,7.429,30.909,30.909,0,0,0,5.837.562A30.537,30.537,0,0,0,69,34.5C69,17.436,54.163,3.515,38.665,4.071c-8.468.3-16.078,4.476-21.325,9.067q-.1-.939-.211-1.826a48.691,48.691,0,0,0-1.351-7.3C15.425,2.814,14.6,0,12.264,0S9.1,2.814,8.75,4.015a48.708,48.708,0,0,0-1.351,7.3A198.153,198.153,0,0,0,6.2,34.5c0,5.7.19,11.345.55,16.318v.011a8.063,8.063,0,0,0-2.573,5.907v4.178A4.167,4.167,0,0,1,0,64.957V69H8.221A12.238,12.238,0,0,0,20.35,56.736ZM38.81,8.111C51.835,7.644,64.961,19.536,64.957,34.5A26.443,26.443,0,0,1,33.586,60.284a2.064,2.064,0,0,1-1.437-2.577,13.657,13.657,0,0,0-2-10.773c-2.374-3.333-6.371-5.488-11.894-6.417.047-1.98.071-6.167.071-6.243a6.064,6.064,0,1,0-.122-7.774c-.09-2.872-.228-5.626-.412-8.2C22.368,13.466,30.1,8.424,38.81,8.111ZM20.97,29.791A2.021,2.021,0,1,1,22.4,32.267,2.02,2.02,0,0,1,20.97,29.791ZM11.212,13.536a64.72,64.72,0,0,1,1.052-6.944,64.72,64.72,0,0,1,1.052,6.944,205.8,205.8,0,0,1,.97,20.964q0,1.013-.008,2.021H10.25q-.008-1.008-.008-2.021a205.8,205.8,0,0,1,.97-20.964Zm-.9,27.027h3.9c-.069,2.855-.187,5.631-.351,8.246a8.093,8.093,0,0,0-3.194,0c-.164-2.615-.282-5.392-.351-8.246ZM8.221,60.914V56.736a4.043,4.043,0,1,1,8.086,0,8.163,8.163,0,0,1-8.086,8.221H7.108A7.868,7.868,0,0,0,8.221,60.914Z" transform="translate(0 0)" fill="#3750b5"/>
    <path id="Path_82" data-name="Path 82" d="M336.2,136.518a6.064,6.064,0,1,0-8.577,0A6.061,6.061,0,0,0,336.2,136.518Zm-5.718-5.718a2.022,2.022,0,1,1,0,2.859A2.024,2.024,0,0,1,330.478,130.8Z" transform="translate(-281.93 -109.165)" fill="#3750b5"/>
    <path id="Path_83" data-name="Path 83" d="M217.571,107.008a6.064,6.064,0,1,0-7.427-4.288A6.071,6.071,0,0,0,217.571,107.008Zm-2.093-7.81a2.021,2.021,0,1,1-1.429,2.476A2.024,2.024,0,0,1,215.479,99.2Z" transform="translate(-181.644 -82.271)" fill="#3750b5"/>
    <path id="Path_84" data-name="Path 84" d="M272.26,334.534a6.064,6.064,0,1,0,4.288-7.427A6.071,6.071,0,0,0,272.26,334.534Zm5.335-3.522a2.021,2.021,0,1,1-1.429,2.476A2.02,2.02,0,0,1,277.595,331.011Z" transform="translate(-235.389 -282.843)" fill="#3750b5"/>
    <path id="Path_85" data-name="Path 85" d="M357.113,246.541a6.064,6.064,0,1,0,7.427-4.288A6.071,6.071,0,0,0,357.113,246.541Zm7.81,2.093a2.021,2.021,0,1,1-1.429-2.476A2.02,2.02,0,0,1,364.923,248.634Z" transform="translate(-308.807 -209.425)" fill="#3750b5"/>
  </g>
</svg>
