<svg xmlns="http://www.w3.org/2000/svg" width="52.125" height="81" viewBox="0 0 52.125 81">
  <g id="restaurant" transform="translate(-91.261)">
    <g id="Group_44" data-name="Group 44" transform="translate(91.261)">
      <g id="Group_43" data-name="Group 43" transform="translate(0)">
        <path id="Path_86" data-name="Path 86" d="M117.745,21.857,114.681,1.438A1.682,1.682,0,0,0,113.014,0h-.057a1.679,1.679,0,0,0-1.623,1.546l-1.478,17.729c-.091,1.094-2.032,1.094-2.123,0L106.257,1.546a1.687,1.687,0,0,0-3.361,0l-1.478,17.729c-.091,1.094-2.032,1.094-2.123,0L97.819,1.546A1.69,1.69,0,0,0,96.192,0h-.054a1.682,1.682,0,0,0-1.667,1.438L91.41,21.857a13.2,13.2,0,0,0,7.82,14.094L96.624,72.468A7.967,7.967,0,0,0,104.569,81h.013a7.967,7.967,0,0,0,7.948-8.532l-2.605-36.517A13.2,13.2,0,0,0,117.745,21.857Z" transform="translate(-91.261)" fill="#3750b5"/>
      </g>
    </g>
    <g id="Group_46" data-name="Group 46" transform="translate(126.514 0.003)">
      <g id="Group_45" data-name="Group 45">
        <path id="Path_87" data-name="Path 87" d="M330.253.325a1.693,1.693,0,0,0-1.536-.213c-.145.051-14.624,5.37-14.624,21.84,0,11.856,3.858,17.844,6.028,20.274l-2.16,2.16a1.676,1.676,0,0,0-.486,1.026l-2.67,26.7a8.1,8.1,0,1,0,16.16.8V1.7A1.67,1.67,0,0,0,330.253.325Z" transform="translate(-314.093 -0.017)" fill="#3750b5"/>
      </g>
    </g>
  </g>
</svg>
