<svg xmlns="http://www.w3.org/2000/svg" width="79.505" height="79.507" viewBox="0 0 79.505 79.507">
  <g id="resume" transform="translate(-0.007)">
    <g id="Group_4" data-name="Group 4" transform="translate(0.007)">
      <g id="Group_3" data-name="Group 3" transform="translate(0)">
        <path id="Path_54" data-name="Path 54" d="M64.3,23.1a1.553,1.553,0,0,0,1.553-1.553V4.659A4.664,4.664,0,0,0,61.19,0H4.666A4.664,4.664,0,0,0,.007,4.659v70.19a4.664,4.664,0,0,0,4.659,4.659H61.19a4.664,4.664,0,0,0,4.659-4.659V63.408a1.553,1.553,0,1,0-3.106,0v11.44A1.555,1.555,0,0,1,61.19,76.4H4.666a1.555,1.555,0,0,1-1.553-1.553V4.659A1.555,1.555,0,0,1,4.666,3.106H61.19a1.555,1.555,0,0,1,1.553,1.553V21.546A1.553,1.553,0,0,0,64.3,23.1Z" transform="translate(-0.007 0)" fill="#fff"/>
      </g>
    </g>
    <g id="Group_6" data-name="Group 6" transform="translate(18.642 8.386)">
      <g id="Group_5" data-name="Group 5">
        <path id="Path_55" data-name="Path 55" d="M134.293,54a14.279,14.279,0,0,0-9.8,24.67,1.537,1.537,0,0,0,.167.155,14.26,14.26,0,0,0,19.269,0,1.553,1.553,0,0,0,.167-.155,14.279,14.279,0,0,0-9.8-24.67Zm0,25.467a11.121,11.121,0,0,1-6.754-2.278,7.764,7.764,0,0,1,13.507,0A11.121,11.121,0,0,1,134.293,79.467Zm-2.485-11.8V66.656a2.485,2.485,0,0,1,4.969,0v1.009a2.485,2.485,0,1,1-4.969,0Zm11.482,7.249a10.773,10.773,0,0,0-4.575-3.835,5.561,5.561,0,0,0,1.168-3.414V66.656a5.59,5.59,0,0,0-11.181,0v1.009a5.561,5.561,0,0,0,1.168,3.414,10.773,10.773,0,0,0-4.575,3.835,11.181,11.181,0,1,1,17.995,0Z" transform="translate(-120.007 -54)" fill="#fff"/>
      </g>
    </g>
    <g id="Group_8" data-name="Group 8" transform="translate(31.375 68.016)">
      <g id="Group_7" data-name="Group 7">
        <path id="Path_56" data-name="Path 56" d="M211.945,438H203.56a1.553,1.553,0,0,0,0,3.106h8.386a1.553,1.553,0,0,0,0-3.106Z" transform="translate(-202.007 -438)" fill="#fff"/>
      </g>
    </g>
    <g id="Group_10" data-name="Group 10" transform="translate(17.71 59.32)">
      <g id="Group_9" data-name="Group 9">
        <path id="Path_57" data-name="Path 57" d="M137.611,382H115.56a1.553,1.553,0,0,0,0,3.106h22.051a1.553,1.553,0,1,0,0-3.106Z" transform="translate(-114.007 -382)" fill="#fff"/>
      </g>
    </g>
    <g id="Group_12" data-name="Group 12" transform="translate(17.71 50.624)">
      <g id="Group_11" data-name="Group 11">
        <path id="Path_58" data-name="Path 58" d="M137.611,326H115.56a1.553,1.553,0,0,0,0,3.106h22.051a1.553,1.553,0,0,0,0-3.106Z" transform="translate(-114.007 -326)" fill="#fff"/>
      </g>
    </g>
    <g id="Group_14" data-name="Group 14" transform="translate(11.076 41.928)">
      <g id="Group_13" data-name="Group 13">
        <path id="Path_59" data-name="Path 59" d="M73.939,270.455a1.552,1.552,0,1,0,.455,1.1A1.565,1.565,0,0,0,73.939,270.455Z" transform="translate(-71.287 -270)" fill="#fff"/>
      </g>
    </g>
    <g id="Group_16" data-name="Group 16" transform="translate(11.076 50.624)">
      <g id="Group_15" data-name="Group 15">
        <path id="Path_60" data-name="Path 60" d="M73.939,326.455a1.552,1.552,0,1,0,.455,1.1A1.568,1.568,0,0,0,73.939,326.455Z" transform="translate(-71.287 -326)" fill="#fff"/>
      </g>
    </g>
    <g id="Group_18" data-name="Group 18" transform="translate(11.076 59.32)">
      <g id="Group_17" data-name="Group 17">
        <path id="Path_61" data-name="Path 61" d="M73.939,382.455a1.552,1.552,0,1,0,.455,1.1A1.568,1.568,0,0,0,73.939,382.455Z" transform="translate(-71.287 -382)" fill="#fff"/>
      </g>
    </g>
    <g id="Group_20" data-name="Group 20" transform="translate(17.71 41.928)">
      <g id="Group_19" data-name="Group 19">
        <path id="Path_62" data-name="Path 62" d="M137.611,270H115.56a1.553,1.553,0,0,0,0,3.106h22.051a1.553,1.553,0,1,0,0-3.106Z" transform="translate(-114.007 -270)" fill="#fff"/>
      </g>
    </g>
    <g id="Group_22" data-name="Group 22" transform="translate(46.218 19.361)">
      <g id="Group_21" data-name="Group 21">
        <path id="Path_63" data-name="Path 63" d="M327.624,125.552a6.522,6.522,0,0,0-8.909,2.387l-19.542,33.847a1.556,1.556,0,0,0-.2.6L297.6,174.711a1.553,1.553,0,0,0,2.464,1.423l9.983-7.352a1.55,1.55,0,0,0,.424-.474l19.542-33.847A6.53,6.53,0,0,0,327.624,125.552Zm-26.545,45.977.718-6.434,4.494,2.595Zm7.477-6.118-5.917-3.416,15.682-27.161,5.917,3.416Zm18.765-32.5-1.531,2.651-5.917-3.416,1.531-2.651a3.416,3.416,0,0,1,5.917,3.416Z" transform="translate(-297.589 -124.675)" fill="#fff"/>
      </g>
    </g>
  </g>
</svg>
