<svg xmlns="http://www.w3.org/2000/svg" width="86" height="49.849" viewBox="0 0 86 49.849">
  <g id="students-cap" transform="translate(0 -166.422)">
    <path id="Path_98" data-name="Path 98" d="M185.356,410.212l-25.655-7.9V415.5c0,6.1,11.49,11.04,25.662,11.04s25.664-4.943,25.664-11.04c0-.048-.016-.1-.017-.143V402.316Z" transform="translate(-142.355 -210.273)" fill="#3750b5"/>
    <path id="Path_99" data-name="Path 99" d="M0,182.965l9.165,3.278.781-1.673,3.367-.286.48.5-2.889.685-.421,1.246s-6.526,13.642-5.568,20.316a8.417,8.417,0,0,0,8.145,0l1.082-18.247v-1.519L20.2,185.9l-.428,1.054-4.519,1.469,2.09.747L43,197.065l25.654-7.9L86,182.965,43,166.422Z" transform="translate(0 0)" fill="#3750b5"/>
  </g>
</svg>
