<svg xmlns="http://www.w3.org/2000/svg" width="30" height="30" viewBox="0 0 30 30"><g transform="translate(-0.484)"><g transform="translate(0.484)" fill="none" stroke="#d1d1d1" stroke-width="3"><circle cx="15" cy="15" r="15" stroke="none"/><circle cx="15" cy="15" r="13.5" fill="none"/></g><path d="M12.72,6.25c.009.126.009.252.009.378A8.211,8.211,0,0,1,4.462,14.9,8.211,8.211,0,0,1,0,13.591a6.011,6.011,0,0,0,.7.036,5.819,5.819,0,0,0,3.607-1.241,2.911,2.911,0,0,1-2.717-2.015,3.664,3.664,0,0,0,.549.045,3.073,3.073,0,0,0,.765-.1A2.906,2.906,0,0,1,.576,7.465V7.429A2.926,2.926,0,0,0,1.889,7.8a2.91,2.91,0,0,1-.9-3.886A8.259,8.259,0,0,0,6.981,6.952a3.28,3.28,0,0,1-.072-.666A2.908,2.908,0,0,1,11.938,4.3a5.721,5.721,0,0,0,1.844-.7A2.9,2.9,0,0,1,12.5,5.2a5.825,5.825,0,0,0,1.673-.45,6.246,6.246,0,0,1-1.457,1.5Z" transform="translate(8.414 5.925)" fill="#d1d1d1"/></g></svg>