<svg xmlns="http://www.w3.org/2000/svg" width="336" height="44" viewBox="0 0 336 44"><g transform="translate(-760 -588)"><g transform="translate(760 588)" fill="#fff" stroke="#fff" stroke-width="2"><rect width="336" height="44" rx="6" stroke="none"/><rect x="1" y="1" width="334" height="42" rx="5" fill="none"/></g><text transform="translate(846 616.192)" fill="#3750b5" font-size="17" font-family="Poppins-Medium, Poppins" font-weight="500"><tspan x="0" y="0">Sign In with Twitter</tspan></text><path d="M26.993,50.6a11.537,11.537,0,0,1-3.189.874,5.5,5.5,0,0,0,2.434-3.059,11.059,11.059,0,0,1-3.509,1.34,5.533,5.533,0,0,0-9.572,3.784,5.7,5.7,0,0,0,.128,1.262A15.663,15.663,0,0,1,1.879,49.009a5.535,5.535,0,0,0,1.7,7.4,5.465,5.465,0,0,1-2.5-.682v.061a5.559,5.559,0,0,0,4.434,5.437,5.523,5.523,0,0,1-1.451.182,4.893,4.893,0,0,1-1.048-.094,5.586,5.586,0,0,0,5.171,3.855,11.119,11.119,0,0,1-6.861,2.36A10.365,10.365,0,0,1,0,67.448a15.579,15.579,0,0,0,8.489,2.483,15.642,15.642,0,0,0,15.75-15.747c0-.245-.008-.481-.02-.715A11.039,11.039,0,0,0,26.993,50.6Z" transform="translate(788 550.747)" fill="#03a9f4"/></g></svg>