<svg xmlns="http://www.w3.org/2000/svg" width="94.731" height="99.799" viewBox="0 0 94.731 99.799">
  <g id="career-promotion" transform="translate(-13 -0.001)">
    <path id="Path_73" data-name="Path 73" d="M184.116,229.59a6.641,6.641,0,0,0,4.808,2.059h0a6.653,6.653,0,0,0,4.815-2.057,1.462,1.462,0,1,0-2.1-2.033,3.755,3.755,0,0,1-2.714,1.167h0a3.742,3.742,0,0,1-2.706-1.165,1.462,1.462,0,1,0-2.1,2.031Z" transform="translate(-137.432 -182.843)" fill="#fff"/>
    <path id="Path_74" data-name="Path 74" d="M152.843,168.006a1.412,1.412,0,0,1,1.949,0,1.462,1.462,0,0,0,2.031-2.1,4.357,4.357,0,0,0-6.018,0,1.462,1.462,0,0,0,2.037,2.1Z" transform="translate(-110.588 -132.597)" fill="#fff"/>
    <path id="Path_75" data-name="Path 75" d="M238.24,168.419a1.457,1.457,0,0,0,1.016-.411,1.412,1.412,0,0,1,1.949,0,1.462,1.462,0,1,0,2.037-2.1,4.358,4.358,0,0,0-6.017,0,1.462,1.462,0,0,0,1.016,2.513Z" transform="translate(-180.159 -132.597)" fill="#fff"/>
    <path id="Path_76" data-name="Path 76" d="M106.213,72.1a1.462,1.462,0,1,0-2.7,1.112A17.135,17.135,0,0,1,87.694,96.876h0a16.989,16.989,0,0,1-12.1-5.017,17.148,17.148,0,0,1,6.444-28.291l.075-.025a17.1,17.1,0,0,1,5.577-.931h0a16.975,16.975,0,0,1,12.089,5.017,1.462,1.462,0,1,0,2.068-2.066,19.879,19.879,0,0,0-14.156-5.874h0a20.073,20.073,0,0,0-5.843.863,27.869,27.869,0,0,0-9.919-4.373c-.58-.435-1.65-1.268-2.864-2.213-1-.774-2.08-1.618-3.1-2.405a25.938,25.938,0,0,0,6.89-11.078,7.59,7.59,0,0,0,3.72-2.056A6.555,6.555,0,0,0,78.665,33.9v-2.05a3.531,3.531,0,0,0-3.525-3.528H73.517v-9.75A15.907,15.907,0,0,0,69.09,7.718,24.437,24.437,0,0,0,59.066,1.381,24.085,24.085,0,0,0,48.074.205,13.49,13.49,0,0,0,39.6,4.514c-4.038.581-10.056,3.651-9.85,16.824,0,.131,0,.238,0,.318v6.661H28.133A3.534,3.534,0,0,0,24.6,31.846V33.9A6.556,6.556,0,0,0,26.7,38.427a7.589,7.589,0,0,0,3.72,2.056A26,26,0,0,0,37.454,51.7c-.979.754-2,1.551-2.944,2.284-1.2.935-2.259,1.759-2.834,2.19a27.865,27.865,0,0,0-10.458,4.761,1.462,1.462,0,1,0,1.738,2.352,24.953,24.953,0,0,1,9-4.181l8.614,6.416q.049.036.1.068a7.449,7.449,0,0,1,.7.5,2.251,2.251,0,0,0,1.37.569,2.455,2.455,0,0,0,1.669-.942c.252-.257.613-.625,1.163-1.119l.822,3.234L41.4,84.5l0-.009a1.615,1.615,0,0,0,.1,1.393l2.742,5.2H28.872V81.565a1.462,1.462,0,1,0-2.923,0v9.517H16.8c-.161,0-.316,0-.463.005-.125,0-.272.005-.4,0,0-.061-.006-.135-.006-.221V75.332a13,13,0,0,1,2.667-7.722,1.462,1.462,0,1,0-2.366-1.718A15.865,15.865,0,0,0,13,75.332V90.87a3.307,3.307,0,0,0,.805,2.428,2.925,2.925,0,0,0,2.207.718c.126,0,.25,0,.372,0s.268,0,.411,0H73.609A19.888,19.888,0,0,0,87.691,99.8h0a20.058,20.058,0,0,0,18.518-27.7ZM71.65,59.109A24.76,24.76,0,0,1,78.537,61.9a20.09,20.09,0,0,0-7.37,29.187H59.029L61.761,85.9a1.63,1.63,0,0,0,.1-1.411l-4.99-16.65.885-3.476c.708.618,1.144,1.063,1.436,1.36a2.455,2.455,0,0,0,1.669.942,2.252,2.252,0,0,0,1.37-.569,7.485,7.485,0,0,1,.7-.5c.034-.021.068-.044.1-.068Zm-22.6,7.3-1.028-4.042L51.8,58.881l3.51,3.233-1.093,4.292Zm18.22-10.132c.595.463,1.14.886,1.613,1.253l-7.545,5.619c-.129.081-.245.159-.349.231-.326-.327-.774-.758-1.415-1.313l-1.627-1.5-.021-.019-2.856-2.631a20.232,20.232,0,0,0,2.193-.691,24.3,24.3,0,0,0,6.458-3.7c1.145.878,2.406,1.859,3.549,2.748ZM75.14,31.241a.6.6,0,0,1,.6.6V33.9a3.7,3.7,0,0,1-1.224,2.451,5.248,5.248,0,0,1-1.044.8c.029-.365.044-.726.044-1.08V31.241H75.14ZM40.483,7.354a1.461,1.461,0,0,0,1.03-.565c2.125-2.761,5.682-3.864,9.438-3.864a22.681,22.681,0,0,1,7.174,1.224c5.752,1.957,12.469,6.908,12.469,14.419V26.82H68.3c-3.2,0-5.244-1.92-7.611-4.142-2.83-2.658-6.039-5.671-11.721-5.671H42.517c-4.784,0-5.556,3.772-6.12,6.527-.608,2.967-1.07,4.6-3.722,4.769V21.656c0-.092,0-.214,0-.364-.094-6.035,1.185-13.352,7.813-13.939ZM27.526,33.9v-2.05a.614.614,0,0,1,.607-.6H29.75v4.826c0,.355.016.716.045,1.082a5.293,5.293,0,0,1-1.044-.8A3.7,3.7,0,0,1,27.526,33.9ZM33,38.829l0-.014a12.476,12.476,0,0,1-.328-2.748V31.229c5.18-.246,6.023-4.359,6.586-7.109.636-3.1,1.055-4.19,3.257-4.19h6.455c4.525,0,7.049,2.37,9.72,4.879,2.583,2.426,5.254,4.935,9.612,4.935h2.29v6.324a12.473,12.473,0,0,1-.328,2.748v0l0,.009c-1.483,6.5-7.509,13.225-14.025,15.657a12.948,12.948,0,0,1-4.6.946,12.9,12.9,0,0,1-4.6-.947C40.516,52.054,34.488,45.325,33,38.829ZM44.032,62.063c-.641.555-1.089.986-1.415,1.313-.1-.072-.221-.15-.349-.231l-7.545-5.619c.465-.36,1-.777,1.583-1.231,1.093-.851,2.3-1.789,3.409-2.641a24.2,24.2,0,0,0,6.294,3.569,19.577,19.577,0,0,0,2.46.753L45.414,60.79l-.029.027Zm.285,22.894L49,69.329h5.267l4.684,15.628-3.226,6.125H47.547Z" fill="#fff"/>
    <path id="Path_77" data-name="Path 77" d="M366.748,378.336a1.462,1.462,0,0,0,1.462-1.462v-13.2l3.165,3.169a1.462,1.462,0,1,0,2.068-2.066l-5.661-5.669,0,0c-.024-.024-.045-.042-.064-.058a1.455,1.455,0,0,0-1.949.014.667.667,0,0,0-.052.047l-5.666,5.669a1.462,1.462,0,1,0,2.068,2.067l3.17-3.172v13.206a1.462,1.462,0,0,0,1.462,1.462Z" transform="translate(-279.057 -288.761)" fill="#fff"/>
  </g>
</svg>
