<svg id="collaboration" xmlns="http://www.w3.org/2000/svg" width="80" height="80" viewBox="0 0 80 80">
  <g id="Group_25" data-name="Group 25" transform="translate(32)">
    <g id="Group_24" data-name="Group 24">
      <path id="Path_64" data-name="Path 64" d="M200,0a8,8,0,1,0,8,8A8,8,0,0,0,200,0Zm0,13.333A5.333,5.333,0,1,1,205.333,8,5.333,5.333,0,0,1,200,13.333Z" transform="translate(-192)" fill="#fcfcfc"/>
    </g>
  </g>
  <g id="Group_27" data-name="Group 27" transform="translate(28 17.333)">
    <g id="Group_26" data-name="Group 26">
      <path id="Path_65" data-name="Path 65" d="M185.333,104h-.315l-.281.14a10.629,10.629,0,0,1-9.475,0l-.281-.14h-.315A6.675,6.675,0,0,0,168,110.667v8a4,4,0,0,0,4,4h16a4,4,0,0,0,4-4v-8A6.675,6.675,0,0,0,185.333,104Zm4,14.667A1.333,1.333,0,0,1,188,120H172a1.333,1.333,0,0,1-1.333-1.333v-8a4,4,0,0,1,3.716-3.989,13.344,13.344,0,0,0,11.235,0,4,4,0,0,1,3.716,3.989Z" transform="translate(-168 -104)" fill="#fcfcfc"/>
    </g>
  </g>
  <g id="Group_29" data-name="Group 29" transform="translate(60 44)">
    <g id="Group_28" data-name="Group 28">
      <path id="Path_66" data-name="Path 66" d="M368,264a8,8,0,1,0,8,8A8,8,0,0,0,368,264Zm0,13.333A5.333,5.333,0,1,1,373.333,272,5.333,5.333,0,0,1,368,277.333Z" transform="translate(-360 -264)" fill="#fcfcfc"/>
    </g>
  </g>
  <g id="Group_31" data-name="Group 31" transform="translate(56 61.333)">
    <g id="Group_30" data-name="Group 30">
      <path id="Path_67" data-name="Path 67" d="M353.333,368h-.315l-.281.133a10.63,10.63,0,0,1-9.475,0l-.281-.133h-.315A6.675,6.675,0,0,0,336,374.667v8a4,4,0,0,0,4,4h16a4,4,0,0,0,4-4v-8A6.675,6.675,0,0,0,353.333,368Zm4,14.667A1.333,1.333,0,0,1,356,384H340a1.333,1.333,0,0,1-1.333-1.333v-8a4,4,0,0,1,3.716-3.989,13.343,13.343,0,0,0,11.235,0,4,4,0,0,1,3.716,3.989Z" transform="translate(-336 -368)" fill="#fcfcfc"/>
    </g>
  </g>
  <g id="Group_33" data-name="Group 33" transform="translate(4 44)">
    <g id="Group_32" data-name="Group 32">
      <path id="Path_68" data-name="Path 68" d="M32,264a8,8,0,1,0,8,8A8,8,0,0,0,32,264Zm0,13.333A5.333,5.333,0,1,1,37.333,272,5.333,5.333,0,0,1,32,277.333Z" transform="translate(-24 -264)" fill="#fcfcfc"/>
    </g>
  </g>
  <g id="Group_35" data-name="Group 35" transform="translate(0 61.333)">
    <g id="Group_34" data-name="Group 34">
      <path id="Path_69" data-name="Path 69" d="M17.333,368h-.315l-.281.133a10.63,10.63,0,0,1-9.475,0L6.981,368H6.667A6.675,6.675,0,0,0,0,374.667v8a4,4,0,0,0,4,4H20a4,4,0,0,0,4-4v-8A6.675,6.675,0,0,0,17.333,368Zm4,14.667A1.333,1.333,0,0,1,20,384H4a1.333,1.333,0,0,1-1.333-1.333v-8a4,4,0,0,1,3.716-3.989,13.343,13.343,0,0,0,11.235,0,4,4,0,0,1,3.716,3.989Z" transform="translate(0 -368)" fill="#fcfcfc"/>
    </g>
  </g>
  <g id="Group_37" data-name="Group 37" transform="translate(26.666 65.333)">
    <g id="Group_36" data-name="Group 36">
      <path id="Path_70" data-name="Path 70" d="M186.56,394.376l0,0a1.333,1.333,0,0,0-1.749-.7h0a29.576,29.576,0,0,1-19.017,1.309l1.248-.367a1.334,1.334,0,0,0-.749-2.56l-5.333,1.564c-.02,0-.035.023-.053.029a1.321,1.321,0,0,0-.344.191,1.16,1.16,0,0,0-.133.084,1.291,1.291,0,0,0-.327.453,1.335,1.335,0,0,0-.1.551,4.108,4.108,0,0,0,.133.533c.008.019,0,.04.015.059l2.667,5.1a1.334,1.334,0,0,0,2.365-1.235l-1.085-2.075a32.094,32.094,0,0,0,21.759-1.184A1.333,1.333,0,0,0,186.56,394.376Z" transform="translate(-159.998 -391.995)" fill="#fcfcfc"/>
    </g>
  </g>
  <g id="Group_39" data-name="Group 39" transform="translate(50.666 10.437)">
    <g id="Group_38" data-name="Group 38">
      <path id="Path_71" data-name="Path 71" d="M328.941,87.242a1.333,1.333,0,0,0-1.885,0l-1.887,1.887a31.952,31.952,0,0,0-19.315-26.4,1.333,1.333,0,1,0-1.045,2.453,29.289,29.289,0,0,1,17.636,23.564l-1.5-1.5a1.333,1.333,0,0,0-1.885,1.885l4,4a1.333,1.333,0,0,0,1.886,0l0,0,4-4A1.333,1.333,0,0,0,328.941,87.242Z" transform="translate(-303.998 -62.622)" fill="#fcfcfc"/>
    </g>
  </g>
  <g id="Group_41" data-name="Group 41" transform="translate(8 8.022)">
    <g id="Group_40" data-name="Group 40">
      <path id="Path_72" data-name="Path 72" d="M69.295,51.657a1.24,1.24,0,0,0-.035-.231c0-.012-.015-.02-.02-.033s0-.023,0-.033a1.279,1.279,0,0,0-.125-.184,1.347,1.347,0,0,0-.152-.22,1.251,1.251,0,0,0-.26-.177,1.172,1.172,0,0,0-.149-.108L63.22,48.235a1.333,1.333,0,0,0-1.107,2.424l2.761,1.263A31.951,31.951,0,0,0,48,80.112a1.333,1.333,0,1,0,2.667,0A29.288,29.288,0,0,1,65.1,54.853l-.964,2.015a1.333,1.333,0,0,0,.623,1.777,1.313,1.313,0,0,0,.577.133,1.333,1.333,0,0,0,1.2-.756L69.2,52.459a.061.061,0,0,1,.011-.041,1.283,1.283,0,0,0,.072-.283,1.382,1.382,0,0,0,.051-.22A1.33,1.33,0,0,0,69.295,51.657Z" transform="translate(-48 -48.134)" fill="#fcfcfc"/>
    </g>
  </g>
</svg>
