<svg xmlns="http://www.w3.org/2000/svg" width="66" height="66" viewBox="0 0 66 66">
  <g id="pencil" transform="translate(0 -0.002)">
    <g id="Group_55" data-name="Group 55" transform="translate(0 0.002)">
      <path id="Path_97" data-name="Path 97" d="M64.242,10.713l-9-9.008a6.134,6.134,0,0,0-8.489,0L6.435,42.426a1.509,1.509,0,0,0-.378.645l-6,21.018a1.5,1.5,0,0,0,1.855,1.856l21-6.005a1.507,1.507,0,0,0,.644-.378L64.242,19.2a6.007,6.007,0,0,0,0-8.492ZM40.217,12.621l5.521,5.521L16.911,46.97l-2.069-4.139A1.5,1.5,0,0,0,13.5,42H11.1ZM3.684,62.318l1.954-6.84,4.886,4.886ZM21,57.371l-7.177,2.05L6.581,52.179,8.631,45h3.942l2.585,5.171a1.5,1.5,0,0,0,.671.671L21,53.429v3.942ZM24,54.9V52.5a1.5,1.5,0,0,0-.829-1.342l-4.139-2.069L47.859,20.264l5.521,5.521ZM62.125,17.119l-6.614,6.555L42.328,10.49l6.551-6.61a3.071,3.071,0,0,1,4.242,0l9,9a3,3,0,0,1,0,4.238Z" transform="translate(0 -0.002)" fill="#3750b5"/>
    </g>
  </g>
</svg>
